<svg height="429pt" viewBox="0 -1 429.58748 429" width="429pt" xmlns="http://www.w3.org/2000/svg">
	<path d="m148.816406 43.351562h193.449219c16.4375 0 29.761719 13.324219 29.761719 29.761719v319.9375c0 16.4375-13.324219 29.761719-29.761719 29.761719h-193.449219c-16.4375 0-29.761718-13.324219-29.761718-29.761719v-319.9375c-.003907-16.4375 13.324218-29.761719 29.761718-29.761719zm0 0" fill="#c2d197"/>
	<path d="m198.042969 302.324219 5.207031-8.988281c2.054688-3.558594.835938-8.109376-2.722656-10.164063l-25.773438-14.878906c-3.558594-2.054688-8.109375-.835938-10.164062 2.722656l-1.660156 2.878906-43.878907-37.910156v104.390625l4.222657 2.164062-4.222657 7.316407v15.164062l9.242188 5.332031-9.242188 16.3125v6.390626c0 5.988281 1.820313 11.835937 5.210938 16.769531l5.246093-1.40625c1.960938-.507813 3.972657.648437 4.515626 2.605469l2.410156 9.011718c3.875 1.8125 8.101562 2.761719 12.378906 2.78125h1.066406l26.902344-47.476562 73.5 47.476562h57.675781c1.726563-1.921875 3.25-4.015625 4.546875-6.25l3.71875-6.441406 33.484375-57.992188zm0 0" fill="#649454"/>
	<path d="m342.265625 43.351562h-52.953125l-9.960938 5.089844c-3.253906 1.664063-4.816406 5.449219-3.683593 8.925782l7.285156 22.515624c.480469 1.488282.480469 3.089844 0 4.578126l-7.285156 22.507812c-1.132813 3.476562.429687 7.261719 3.683593 8.925781l21.070313 10.765625c1.394531.714844 2.523437 1.847656 3.238281 3.238282l10.765625 21.070312c1.65625 3.269531 5.441407 4.847656 8.929688 3.722656l22.507812-7.285156c1.484375-.484375 3.085938-.484375 4.574219 0l21.59375 6.902344v-81.195313c-.003906-16.4375-13.328125-29.761719-29.765625-29.761719zm0 0" fill="#9cb16a"/>
	<path d="m359.433594 7.941406 22.511718-7.285156c3.488282-1.125 7.273438.453125 8.929688 3.722656l10.765625 21.070313c.710937 1.394531 1.84375 2.523437 3.238281 3.238281l21.070313 10.765625c3.253906 1.667969 4.816406 5.453125 3.683593 8.929687l-7.285156 22.511719c-.484375 1.484375-.484375 3.085938 0 4.570313l7.285156 22.515625c1.132813 3.476562-.429687 7.261719-3.683593 8.925781l-21.070313 10.769531c-1.394531.710938-2.523437 1.84375-3.238281 3.234375l-10.765625 21.070313c-1.65625 3.269531-5.441406 4.847656-8.929688 3.722656l-22.511718-7.285156c-1.484375-.484375-3.085938-.484375-4.570313 0l-22.515625 7.285156c-3.484375 1.125-7.273437-.453125-8.925781-3.722656l-10.769531-21.070313c-.710938-1.390625-1.84375-2.523437-3.234375-3.234375l-21.070313-10.769531c-3.257812-1.664062-4.820312-5.449219-3.683594-8.925781l7.28125-22.515625c.484376-1.484375.484376-3.085938 0-4.570313l-7.28125-22.511719c-1.136718-3.476562.425782-7.261718 3.683594-8.929687l21.070313-10.765625c1.390625-.710938 2.523437-1.84375 3.234375-3.238281l10.769531-21.070313c1.652344-3.269531 5.441406-4.847656 8.925781-3.722656l22.515625 7.285156c1.484375.484375 3.085938.484375 4.570313 0zm0 0" fill="#eb120d"/>
	<path d="m386.910156 73.113281c0 16.4375-13.324218 29.761719-29.761718 29.761719s-29.761719-13.324219-29.761719-29.761719 13.324219-29.761719 29.761719-29.761719 29.761718 13.324219 29.761718 29.761719zm0 0" fill="#ff5e5b"/>
	<g fill="#649454">
		<path d="m305.066406 184.71875h-126.488281c-4.109375 0-7.441406-3.332031-7.441406-7.441406 0-4.105469 3.332031-7.4375 7.441406-7.4375h126.488281c4.105469 0 7.4375 3.332031 7.4375 7.4375 0 4.109375-3.332031 7.441406-7.4375 7.441406zm0 0"/>
		<path d="m305.066406 221.921875h-104.167968c-4.109376 0-7.441407-3.332031-7.441407-7.441406s3.332031-7.4375 7.441407-7.4375h104.167968c4.105469 0 7.4375 3.328125 7.4375 7.4375s-3.332031 7.441406-7.4375 7.441406zm0 0"/>
		<path d="m305.066406 259.125h-52.085937c-4.109375 0-7.4375-3.332031-7.4375-7.441406s3.328125-7.4375 7.4375-7.4375h52.085937c4.105469 0 7.4375 3.328125 7.4375 7.4375s-3.332031 7.441406-7.4375 7.441406zm0 0"/>
	</g>
	<path d="m193.457031 102.875h44.644531c8.21875 0 14.878907 6.664062 14.878907 14.882812s-6.660157 14.878907-14.878907 14.878907h-44.644531c-8.21875 0-14.878906-6.660157-14.878906-14.878907s6.660156-14.882812 14.878906-14.882812zm0 0" fill="#eb120d"/>
	<path d="m153.585938 421.667969-4.910157-18.347657c-.546875-1.953124-2.554687-3.113281-4.519531-2.605468l-18.339844 4.917968c-1.996094.488282-4.007812-.738281-4.496094-2.734374-.21875-.902344-.09375-1.851563.351563-2.667969l42.023437-74.144531 38.691407 22.320312-42.023438 74.144531c-1.050781 1.769531-3.332031 2.351563-5.097656 1.300781-.820313-.484374-1.421875-1.265624-1.679687-2.183593zm0 0" fill="#9e0c09"/>
	<path d="m74.417969 177.019531 134.679687 116.429688 155.28125 50.980469-33.480468 58-289.960938-167.414063zm0 0" fill="#649454"/>
	<path d="m276.359375 422.488281-125.15625-80.847656-132.597656-67.964844c-17.792969-10.273437-23.886719-33.023437-13.613281-50.816406l3.71875-6.445313c10.269531-17.792968 33.023437-23.894531 50.816406-13.621093h.003906l125.152344 80.886719 132.597656 67.953124c17.792969 10.269532 23.890625 33.023438 13.621094 50.816407 0 .003906-.003906.007812-.003906.007812l-3.722657 6.445313c-10.28125 17.78125-33.03125 23.863281-50.816406 13.585937zm0 0" fill="#9cb16a"/>
	<path d="m189.398438 260.59375 25.773437 14.882812c3.558594 2.054688 4.78125 6.605469 2.726563 10.164063l-48.363282 83.765625c-2.054687 3.558594-6.605468 4.777344-10.164062 2.726562l-25.777344-14.882812c-3.554688-2.054688-4.777344-6.605469-2.722656-10.164062l48.363281-83.765626c2.054687-3.5625 6.605469-4.78125 10.164063-2.726562zm0 0" fill="#eb120d"/>
</svg>